name ./resultDataOpenSim/trcMotMarkerGrf/sub09/grf-04-05.mot
datacolumns 19
datarows 20
range 0.50000000 0.57600000
endheader

                time	     ground_force_vx	     ground_force_vy	     ground_force_vz	     ground_force_px	     ground_force_py	     ground_force_pz	   l_ground_force_vx	   l_ground_force_vy	   l_ground_force_vz	   l_ground_force_px	   l_ground_force_py	   l_ground_force_pz	     ground_torque_x	     ground_torque_y	     ground_torque_z	   l_ground_torque_x	   l_ground_torque_y	   l_ground_torque_z	
          0.50000000	         35.64997420	        404.52237431	        -15.18460174	         -0.69957035	          0.00000000	          0.09177263	          0.00000000	          0.00000000	          0.00000000	          0.00000000	          0.00000000	          0.00000000	          0.00000000	          2.75745643	          0.00000000	          0.00000000	          0.00000000	          0.00000000	
          0.50400000	         38.21126260	        411.18962441	        -14.54155034	         -0.69923738	          0.00000000	          0.09180243	          0.00000000	          0.00000000	          0.00000000	          0.00000000	          0.00000000	          0.00000000	          0.00000000	          3.05834961	          0.00000000	          0.00000000	          0.00000000	          0.00000000	
          0.50800000	         40.76292375	        418.46071921	        -13.98226781	         -0.69868653	          0.00000000	          0.09184537	          0.00000000	          0.00000000	          0.00000000	          0.00000000	          0.00000000	          0.00000000	          0.00000000	          3.35166650	          0.00000000	          0.00000000	          0.00000000	          0.00000000	
          0.51200000	         43.24193623	        426.18780081	        -13.70023038	         -0.69786454	          0.00000000	          0.09193277	          0.00000000	          0.00000000	          0.00000000	          0.00000000	          0.00000000	          0.00000000	          0.00000000	          3.61022424	          0.00000000	          0.00000000	          0.00000000	          0.00000000	
          0.51600000	         45.57028261	        434.20838247	        -13.83391474	         -0.69674094	          0.00000000	          0.09208365	          0.00000000	          0.00000000	          0.00000000	          0.00000000	          0.00000000	          0.00000000	          0.00000000	          3.81567679	          0.00000000	          0.00000000	          0.00000000	          0.00000000	
          0.52000000	         47.68392140	        442.42173572	        -14.44202085	         -0.69532481	          0.00000000	          0.09229995	          0.00000000	          0.00000000	          0.00000000	          0.00000000	          0.00000000	          0.00000000	          0.00000000	          3.96136256	          0.00000000	          0.00000000	          0.00000000	          0.00000000	
          0.52400000	         49.55834898	        450.81912051	        -15.49826844	         -0.69364480	          0.00000000	          0.09257471	          0.00000000	          0.00000000	          0.00000000	          0.00000000	          0.00000000	          0.00000000	          0.00000000	          4.05232300	          0.00000000	          0.00000000	          0.00000000	          0.00000000	
          0.52800000	         51.22429259	        459.46292014	        -16.90682942	         -0.69175122	          0.00000000	          0.09289967	          0.00000000	          0.00000000	          0.00000000	          0.00000000	          0.00000000	          0.00000000	          0.00000000	          4.10272411	          0.00000000	          0.00000000	          0.00000000	          0.00000000	
          0.53200000	         52.76930807	        468.44219689	        -18.53367159	         -0.68970356	          0.00000000	          0.09326735	          0.00000000	          0.00000000	          0.00000000	          0.00000000	          0.00000000	          0.00000000	          0.00000000	          4.13139625	          0.00000000	          0.00000000	          0.00000000	          0.00000000	
          0.53600000	         54.32793642	        477.83688217	        -20.24332993	         -0.68755091	          0.00000000	          0.09367421	          0.00000000	          0.00000000	          0.00000000	          0.00000000	          0.00000000	          0.00000000	          0.00000000	          4.15652080	          0.00000000	          0.00000000	          0.00000000	          0.00000000	
          0.54000000	         56.06401796	        487.71469159	        -21.93260676	         -0.68534978	          0.00000000	          0.09411404	          0.00000000	          0.00000000	          0.00000000	          0.00000000	          0.00000000	          0.00000000	          0.00000000	          4.19066263	          0.00000000	          0.00000000	          0.00000000	          0.00000000	
          0.54400000	         58.14474471	        498.14671494	        -23.55482825	         -0.68317597	          0.00000000	          0.09457310	          0.00000000	          0.00000000	          0.00000000	          0.00000000	          0.00000000	          0.00000000	          0.00000000	          4.23734089	          0.00000000	          0.00000000	          0.00000000	          0.00000000	
          0.54800000	         60.70734041	        509.20931656	        -25.12722372	         -0.68110056	          0.00000000	          0.09503352	          0.00000000	          0.00000000	          0.00000000	          0.00000000	          0.00000000	          0.00000000	          0.00000000	          4.29006090	          0.00000000	          0.00000000	          0.00000000	          0.00000000	
          0.55200000	         63.82814723	        520.96832333	        -26.71852138	         -0.67916400	          0.00000000	          0.09548052	          0.00000000	          0.00000000	          0.00000000	          0.00000000	          0.00000000	          0.00000000	          0.00000000	          4.33417044	          0.00000000	          0.00000000	          0.00000000	          0.00000000	
          0.55600000	         67.50639547	        533.46582939	        -28.42018750	         -0.67737432	          0.00000000	          0.09589866	          0.00000000	          0.00000000	          0.00000000	          0.00000000	          0.00000000	          0.00000000	          0.00000000	          4.35116703	          0.00000000	          0.00000000	          0.00000000	          0.00000000	
          0.56000000	         71.66668006	        546.71540494	        -30.30658884	         -0.67572111	          0.00000000	          0.09626268	          0.00000000	          0.00000000	          0.00000000	          0.00000000	          0.00000000	          0.00000000	          0.00000000	          4.32438211	          0.00000000	          0.00000000	          0.00000000	          0.00000000	
          0.56400000	         76.17864085	        560.69273168	        -32.39348520	         -0.67418871	          0.00000000	          0.09654158	          0.00000000	          0.00000000	          0.00000000	          0.00000000	          0.00000000	          0.00000000	          0.00000000	          4.24454160	          0.00000000	          0.00000000	          0.00000000	          0.00000000	
          0.56800000	         80.89002924	        575.32635808	        -34.61219174	         -0.67276144	          0.00000000	          0.09670848	          0.00000000	          0.00000000	          0.00000000	          0.00000000	          0.00000000	          0.00000000	          0.00000000	          4.11370838	          0.00000000	          0.00000000	          0.00000000	          0.00000000	
          0.57200000	         85.66580650	        590.50352614	        -36.81667225	         -0.67142197	          0.00000000	          0.09674507	          0.00000000	          0.00000000	          0.00000000	          0.00000000	          0.00000000	          0.00000000	          0.00000000	          3.94655815	          0.00000000	          0.00000000	          0.00000000	          0.00000000	
          0.57600000	         90.42323298	        606.08247653	        -38.82206661	         -0.67014937	          0.00000000	          0.09664892	          0.00000000	          0.00000000	          0.00000000	          0.00000000	          0.00000000	          0.00000000	          0.00000000	          3.76864982	          0.00000000	          0.00000000	          0.00000000	          0.00000000	
